<svg version="1.2" xmlns="http://www.w3.org/2000/svg" viewBox="0 0 350 220" width="350" height="220"><style>.a{display:none;fill:#f0f0f0}.b{opacity:.2;fill:#ff6347}.c{fill:#333}.d{opacity:.3;fill:#333}.e{fill:#ff6347}</style><path class="a" d="m-9-27h367v274h-367z"/><path class="b" d="m24.5 21.7v59.4h1.1v-29.1h42.2v29.1h1.1v-59.4h-1.1v29.2h-42.2v-29.2zm9.1 69.3h-17.1q-2 0-3-0.9-0.9-1-0.9-3.1v-71.2q0-2.1 0.9-3 1-1 3-1h17.1q2.1 0 3 1 1 0.9 1 3v23.8h18.3v-23.8q0-2.1 0.9-3 1-1 3.1-1h17q2.1 0 3 1 1 0.9 1 3v71.2q0 2.1-1 3.1-0.9 0.9-3 0.9h-17q-2.1 0-3.1-0.9-0.9-1-0.9-3.1v-24.4h-18.3v24.4q0 2.1-1 3.1-0.9 0.9-3 0.9zm73.6-29.9v-3.4q0-3 0.4-5.5 0.6-2.6 1.3-4.8l7.1-18q1.1-2.7 2.4-4.6 1.3-2 4.6-2h10.8q3.1 0 4.4 2 1.3 1.9 2.5 4.7l7.6 17.9q0.8 2.2 1.2 4.8 0.6 2.5 0.6 5.5v3.4zm17.6-26.2l-5.2 16.7h17.3l-5.2-16.7q-0.4-1-1-1.4-0.4-0.5-1.1-0.5h-2.7q-0.7 0-1.2 0.5-0.5 0.4-0.9 1.4zm25.3 27.3v18.9h1.1v-23.4q0-3.1-0.6-5.6-0.4-2.7-1.3-5.1l-7.6-17.9q-1.3-3.2-2.8-5.3-1.5-2.1-5.1-2.1h-10.8q-3.7 0-5.3 2.1-1.5 2.1-2.7 5.2l-7 18q-0.9 2.4-1.5 5.1-0.4 2.5-0.4 5.6v23.4h1.1v-18.9zm-31.6 9.4v15.4q0 2.1-1 3.1-0.9 0.9-2.9 0.9h-16.2q-2.1 0-3.1-0.9-0.9-1-0.9-3.1v-29q0-3.3 1-7.6 1.1-4.3 3.3-10l9.6-25q0.6-1.8 2-2.7 1.4-0.9 3.6-0.9h29.6q2.1 0 3.4 0.9 1.4 0.9 2.1 2.7l9.6 25q2.2 5.7 3.1 10 1.1 4.3 1.1 7.6v29q0 2.1-0.9 3.1-0.9 0.9-3 0.9h-16.6q-2.2 0-3.3-0.9-1-1-1-3.1v-15.4zm112.8-3.5l-40.4-45.5q-0.6-0.6-0.9-0.8-0.3-0.2-0.8-0.2-0.4 0-0.9 0.3-0.4 0.3-0.4 1v58.2h1.1v-58q0-0.1 0-0.2 0.1-0.1 0.2-0.1 0.1 0 0.2 0.1 0.3 0.1 0.4 0.2l41.5 46.7v11.3h1.1v-59.4h-1.1zm-34.5 22.9h-16.5q-2.1 0-3.1-0.9-0.9-1-0.9-3.1v-71.3q0-2.1 0.9-2.9 1-1 3.1-1h11.5q2 0 3.5 0.6 1.5 0.7 2.9 2.3l21.4 24.5v-23.5q0-2.1 0.9-2.9 0.9-1 3-1h16.5q2.1 0 3 1 1 0.8 1 2.9v71.3q0 2.1-1 3.1-0.9 0.9-3 0.9h-16.5q-2.1 0-3-0.9-0.9-1-0.9-3.1v-13.5l-18.8-22.8v36.3q0 2.1-1 3.1-0.9 0.9-3 0.9zm122.9 0h-34.7q-13.7 0-20.4-5.5-6.6-5.5-6.6-17v-34.3q0-11.4 6.6-16.9 6.7-5.5 20.4-5.5h27.5q2.1 0 3 1 1 0.8 1 2.9v13.3q0 2.1-1 3.1-0.9 0.9-3 0.9h-22.9q-3.4 0-5 1.4-1.7 1.4-1.7 4.1v26.3q0 2.7 1.2 4.1 1.4 1.3 3.9 1.3h10.7v-17.2q0-2.1 0.8-2.9 1-1 3.1-1h17.1q2.1 0 2.9 1 1 0.8 1 2.9v34q0 2.1-1 3.1-0.8 0.9-2.9 0.9zm-29.9-9.9h21.8v-22.1h-1.1v21h-20.7q-11.2 0-15-3-3.7-3-3.7-10.1v-30.8q0-7.3 3.4-10.2 3.4-3.1 13.1-3.1h19v-1.1h-19q-10.6 0-14.1 3.3-3.5 3.3-3.5 11.1v30.8q0 3.8 0.7 6.6 0.9 2.6 3.1 4.4 2.2 1.6 6.1 2.4 3.8 0.8 9.9 0.8z"/><path class="c" d="m17.5 25.7v59.4h1.1v-29.1h42.2v29.1h1.1v-59.4h-1.1v29.2h-42.2v-29.2zm9.1 69.3h-17.1q-2 0-3-0.9-0.9-1-0.9-3.1v-71.2q0-2.1 0.9-3 1-1 3-1h17.1q2.1 0 3 1 1 0.9 1 3v23.8h18.3v-23.8q0-2.1 0.9-3 1-1 3.1-1h17q2.1 0 3 1 1 0.9 1 3v71.2q0 2.1-1 3.1-0.9 0.9-3 0.9h-17q-2.1 0-3.1-0.9-0.9-1-0.9-3.1v-24.4h-18.3v24.4q0 2.1-1 3.1-0.9 0.9-3 0.9zm73.6-29.9v-3.4q0-3 0.4-5.5 0.6-2.6 1.3-4.8l7.1-18q1.1-2.7 2.4-4.6 1.3-2 4.6-2h10.8q3.1 0 4.4 2 1.3 1.9 2.5 4.7l7.6 17.9q0.8 2.2 1.2 4.8 0.6 2.5 0.6 5.5v3.4zm17.6-26.2l-5.2 16.7h17.3l-5.2-16.7q-0.4-1-1-1.4-0.4-0.5-1.1-0.5h-2.7q-0.7 0-1.2 0.5-0.5 0.4-0.9 1.4zm25.3 27.3v18.9h1.1v-23.4q0-3.1-0.6-5.6-0.4-2.7-1.3-5.1l-7.6-17.9q-1.3-3.2-2.8-5.3-1.5-2.1-5.1-2.1h-10.8q-3.7 0-5.3 2.1-1.5 2.1-2.7 5.2l-7 18q-0.9 2.4-1.5 5.1-0.4 2.5-0.4 5.6v23.4h1.1v-18.9zm-31.6 9.4v15.4q0 2.1-1 3.1-0.9 0.9-2.9 0.9h-16.2q-2.1 0-3.1-0.9-0.9-1-0.9-3.1v-29q0-3.3 1-7.6 1.1-4.3 3.3-10l9.6-25q0.6-1.8 2-2.7 1.4-0.9 3.6-0.9h29.6q2.1 0 3.4 0.9 1.4 0.9 2.1 2.7l9.6 25q2.2 5.7 3.1 10 1.1 4.3 1.1 7.6v29q0 2.1-0.9 3.1-0.9 0.9-3 0.9h-16.6q-2.2 0-3.3-0.9-1-1-1-3.1v-15.4zm112.8-3.5l-40.4-45.5q-0.6-0.6-0.9-0.8-0.3-0.2-0.8-0.2-0.4 0-0.9 0.3-0.4 0.3-0.4 1v58.2h1.1v-58q0-0.1 0-0.2 0.1-0.1 0.2-0.1 0.1 0 0.2 0.1 0.3 0.1 0.4 0.2l41.5 46.7v11.3h1.1v-59.4h-1.1zm-34.5 22.9h-16.5q-2.1 0-3.1-0.9-0.9-1-0.9-3.1v-71.3q0-2.1 0.9-2.9 1-1 3.1-1h11.5q2 0 3.5 0.6 1.5 0.7 2.9 2.3l21.4 24.5v-23.5q0-2.1 0.9-2.9 0.9-1 3-1h16.5q2.1 0 3 1 1 0.8 1 2.9v71.3q0 2.1-1 3.1-0.9 0.9-3 0.9h-16.5q-2.1 0-3-0.9-0.9-1-0.9-3.1v-13.5l-18.8-22.8v36.3q0 2.1-1 3.1-0.9 0.9-3 0.9zm122.9 0h-34.7q-13.7 0-20.4-5.5-6.6-5.5-6.6-17v-34.3q0-11.4 6.6-16.9 6.7-5.5 20.4-5.5h27.5q2.1 0 3 1 1 0.8 1 2.9v13.3q0 2.1-1 3.1-0.9 0.9-3 0.9h-22.9q-3.4 0-5 1.4-1.7 1.4-1.7 4.1v26.3q0 2.7 1.2 4.1 1.4 1.3 3.9 1.3h10.7v-17.2q0-2.1 0.8-2.9 1-1 3.1-1h17.1q2.1 0 2.9 1 1 0.8 1 2.9v34q0 2.1-1 3.1-0.8 0.9-2.9 0.9zm-29.9-9.9h21.8v-22.1h-1.1v21h-20.7q-11.2 0-15-3-3.7-3-3.7-10.1v-30.8q0-7.3 3.4-10.2 3.4-3.1 13.1-3.1h19v-1.1h-19q-10.6 0-14.1 3.3-3.5 3.3-3.5 11.1v30.8q0 3.8 0.7 6.6 0.9 2.6 3.1 4.4 2.2 1.6 6.1 2.4 3.8 0.8 9.9 0.8z"/><path class="d" d="m137.3 169.7q-2 0-2.9-0.9-0.8-0.9-2.7-3.8l-13.4-20.4q-0.7-1.1-1.6-1.5-0.8-0.4-1.7-0.4h-1.9q-1.4 0-2.2 0.9-0.7 0.8-0.7 2.5v56h1.1v-56q0-0.9 0.4-1.5 0.3-0.8 1.4-0.8h1.7q0.7 0 1.3 0.2 0.6 0.2 1.3 1.3l13.4 20.3q2 3 3 4.1 1.1 1.1 3.5 1.1 2.4 0 3.4-1.1 1.1-1.1 3.1-4.1l13.4-20.3q0.7-1.1 1.2-1.3 0.6-0.2 1.3-0.2h1.7q1.1 0 1.4 0.8 0.5 0.6 0.5 1.5v56h1.1v-56q0-1.7-0.8-2.5-0.7-0.9-2.2-0.9h-1.9q-0.9 0-1.7 0.4-0.8 0.4-1.5 1.5l-13.4 20.4q-1.8 2.9-2.7 3.8-0.9 0.9-2.9 0.9zm-18.4 42.3h-16.4q-2 0-3-0.9-0.9-1-0.9-3.1v-71.2q0-2.1 0.9-3 1-1 3-1h17.8q1.7 0 2.8 0.8 1.2 0.7 2.2 2.5l9.9 17.9q0.6 1 0.9 1.5 0.4 0.4 1.1 0.4h1q0.6 0 1-0.4 0.4-0.5 1-1.5l9.8-17.9q0.9-1.8 2-2.5 1.3-0.8 3-0.8h17.8q2.1 0 3 1 1 0.9 1 3v71.2q0 2.1-1 3.1-0.9 0.9-3 0.9h-16.9q-2.1 0-3.1-0.9-0.9-1-0.9-3.1v-38.7l-6.5 12q-0.9 1.9-2.4 2.8-1.3 0.7-3.4 0.7h-4.4q-2.1 0-3.5-0.7-1.3-0.9-2.3-2.8l-6.5-12v38.7q0 2.1-1 3.1-0.9 0.9-3 0.9zm84.2-29.9v-3.4q0-3 0.4-5.5 0.6-2.6 1.3-4.8l7.1-18q1.1-2.7 2.4-4.6 1.3-2 4.6-2h10.8q3.1 0 4.4 2 1.3 1.9 2.5 4.7l7.6 17.9q0.8 2.2 1.2 4.8 0.6 2.5 0.6 5.5v3.4zm17.6-26.2l-5.2 16.7h17.3l-5.2-16.7q-0.4-1-1-1.4-0.4-0.5-1.1-0.5h-2.7q-0.7 0-1.2 0.5-0.5 0.4-0.9 1.4zm25.3 27.3v18.9h1.1v-23.4q0-3.1-0.6-5.6-0.4-2.7-1.3-5.1l-7.6-17.9q-1.3-3.2-2.8-5.3-1.5-2.1-5.1-2.1h-10.8q-3.7 0-5.3 2.1-1.5 2.1-2.7 5.2l-7 18q-0.9 2.4-1.5 5.1-0.4 2.5-0.4 5.6v23.4h1.1v-18.9zm-31.6 9.4v15.4q0 2.1-1 3.1-0.9 0.9-2.9 0.9h-16.2q-2.1 0-3.1-0.9-0.9-1-0.9-3.1v-29q0-3.3 1-7.6 1.1-4.3 3.3-10l9.6-25q0.6-1.8 2-2.7 1.4-0.9 3.6-0.9h29.6q2.1 0 3.4 0.9 1.4 0.9 2.1 2.7l9.6 25q2.2 5.7 3.1 10 1.1 4.3 1.1 7.6v29q0 2.1-0.9 3.1-0.9 0.9-3 0.9h-16.6q-2.2 0-3.3-0.9-1-1-1-3.1v-15.4zm112.8-3.5l-40.4-45.5q-0.6-0.6-0.9-0.8-0.3-0.2-0.8-0.2-0.4 0-0.9 0.3-0.4 0.4-0.4 1v58.2h1.1v-58q0-0.1 0-0.2 0.1-0.1 0.2-0.1 0.1 0 0.2 0.1 0.3 0.1 0.4 0.2l41.5 46.7v11.3h1.1v-59.4h-1.1zm-34.5 22.9h-16.5q-2.1 0-3.1-0.9-0.9-1-0.9-3.1v-71.3q0-2 0.9-2.9 1-1 3.1-1h11.4q2.1 0 3.6 0.6 1.5 0.7 2.9 2.3l21.4 24.5v-23.5q0-2 0.9-2.9 0.9-1 3-1h16.5q2.1 0 3 1 1 0.9 1 2.9v71.3q0 2.1-1 3.1-0.9 0.9-3 0.9h-16.5q-2.1 0-3-0.9-0.9-1-0.9-3.1v-13.5l-18.8-22.8v36.3q0 2.1-1 3.1-0.9 0.9-3 0.9z"/><path class="e" d="m143.3 162.7q-2 0-2.9-0.9-0.8-0.9-2.7-3.8l-13.4-20.4q-0.7-1.1-1.6-1.5-0.8-0.4-1.7-0.4h-1.9q-1.4 0-2.2 0.9-0.7 0.8-0.7 2.5v56h1.1v-56q0-0.9 0.4-1.5 0.3-0.8 1.4-0.8h1.7q0.7 0 1.3 0.2 0.6 0.2 1.3 1.3l13.4 20.3q2 3 3 4.1 1.1 1.1 3.5 1.1 2.4 0 3.4-1.1 1.1-1.1 3.1-4.1l13.4-20.3q0.7-1.1 1.2-1.3 0.6-0.2 1.3-0.2h1.7q1.1 0 1.4 0.8 0.5 0.6 0.5 1.5v56h1.1v-56q0-1.7-0.8-2.5-0.7-0.9-2.2-0.9h-1.9q-0.9 0-1.7 0.4-0.8 0.4-1.5 1.5l-13.4 20.4q-1.8 2.9-2.7 3.8-0.9 0.9-2.9 0.9zm-18.4 42.3h-16.4q-2 0-3-0.9-0.9-1-0.9-3.1v-71.2q0-2.1 0.9-3 1-1 3-1h17.8q1.7 0 2.8 0.8 1.2 0.7 2.2 2.5l9.9 17.9q0.6 1 0.9 1.5 0.4 0.4 1.1 0.4h1q0.6 0 1-0.4 0.4-0.5 1-1.5l9.8-17.9q0.9-1.8 2-2.5 1.3-0.8 3-0.8h17.8q2.1 0 3 1 1 0.9 1 3v71.2q0 2.1-1 3.1-0.9 0.9-3 0.9h-16.9q-2.1 0-3.1-0.9-0.9-1-0.9-3.1v-38.7l-6.5 12q-0.9 1.9-2.4 2.8-1.3 0.7-3.4 0.7h-4.4q-2.1 0-3.5-0.7-1.3-0.9-2.3-2.8l-6.5-12v38.7q0 2.1-1 3.1-0.9 0.9-3 0.9zm84.2-29.9v-3.4q0-3 0.4-5.5 0.6-2.6 1.3-4.8l7.1-18q1.1-2.7 2.4-4.6 1.3-2 4.6-2h10.8q3.1 0 4.4 2 1.3 1.9 2.5 4.7l7.6 17.9q0.8 2.2 1.2 4.8 0.6 2.5 0.6 5.5v3.4zm17.6-26.2l-5.2 16.7h17.3l-5.2-16.7q-0.4-1-1-1.4-0.4-0.5-1.1-0.5h-2.7q-0.7 0-1.2 0.5-0.5 0.4-0.9 1.4zm25.3 27.3v18.9h1.1v-23.4q0-3.1-0.6-5.6-0.4-2.7-1.3-5.1l-7.6-17.9q-1.3-3.2-2.8-5.3-1.5-2.1-5.1-2.1h-10.8q-3.7 0-5.3 2.1-1.5 2.1-2.7 5.2l-7 18q-0.9 2.4-1.5 5.1-0.4 2.5-0.4 5.6v23.4h1.1v-18.9zm-31.6 9.4v15.4q0 2.1-1 3.1-0.9 0.9-2.9 0.9h-16.2q-2.1 0-3.1-0.9-0.9-1-0.9-3.1v-29q0-3.3 1-7.6 1.1-4.3 3.3-10l9.6-25q0.6-1.8 2-2.7 1.4-0.9 3.6-0.9h29.6q2.1 0 3.4 0.9 1.4 0.9 2.1 2.7l9.6 25q2.2 5.7 3.1 10 1.1 4.3 1.1 7.6v29q0 2.1-0.9 3.1-0.9 0.9-3 0.9h-16.6q-2.2 0-3.3-0.9-1-1-1-3.1v-15.4zm112.8-3.5l-40.4-45.5q-0.6-0.6-0.9-0.8-0.3-0.2-0.8-0.2-0.4 0-0.9 0.3-0.4 0.4-0.4 1v58.2h1.1v-58q0-0.1 0-0.2 0.1-0.1 0.2-0.1 0.1 0 0.2 0.1 0.3 0.1 0.4 0.2l41.5 46.7v11.3h1.1v-59.4h-1.1zm-34.5 22.9h-16.5q-2.1 0-3.1-0.9-0.9-1-0.9-3.1v-71.3q0-2.1 0.9-2.9 1-1 3.1-1h11.4q2.1 0 3.6 0.6 1.5 0.7 2.9 2.3l21.4 24.5v-23.5q0-2.1 0.9-2.9 0.9-1 3-1h16.5q2.1 0 3 1 1 0.8 1 2.9v71.3q0 2.1-1 3.1-0.9 0.9-3 0.9h-16.5q-2.1 0-3-0.9-0.9-1-0.9-3.1v-13.5l-18.8-22.8v36.3q0 2.1-1 3.1-0.9 0.9-3 0.9z"/><path class="d" d="m10 126c0-2.8 2.2-5 5-5h40c2.8 0 5 2.2 5 5v40c0 2.8-2.2 5-5 5h-40c-2.8 0-5-2.2-5-5z"/><path class="e" d="m5 129c0-2.8 2.2-5 5-5h40c2.8 0 5 2.2 5 5v40c0 2.8-2.2 5-5 5h-40c-2.8 0-5-2.2-5-5z"/><path class="b" d="m36 166c0-2.8 2.2-5 5-5h40c2.8 0 5 2.2 5 5v40c0 2.8-2.2 5-5 5h-40c-2.8 0-5-2.2-5-5z"/><path class="c" d="m40 162c0-2.8 2.2-5 5-5h40c2.8 0 5 2.2 5 5v40c0 2.8-2.2 5-5 5h-40c-2.8 0-5-2.2-5-5z"/></svg>